<?xml version="1.0" encoding="utf-8"?>
<!-- Generator: Adobe Illustrator 27.9.4, SVG Export Plug-In . SVG Version: 9.03 Build 54784)  -->
<svg version="1.1" id="Capa_1" xmlns="http://www.w3.org/2000/svg" xmlns:xlink="http://www.w3.org/1999/xlink" x="0px" y="0px"
	 viewBox="0 0 30 30" style="enable-background:new 0 0 30 30;" xml:space="preserve">
<g>
	<path d="M19.07,20.03c0.24,1.22,0.51,2.34,0.68,3.47c0.23,1.49,0.11,2.96-0.58,4.33c-1.1,2.18-3.46,2.32-4.83,0.28
		c-0.77-1.15-1.08-2.46-1.12-3.82c-0.04-1.15-0.01-2.31-0.01-3.48c-0.14,0.2-0.32,0.47-0.5,0.73c-1.1,1.55-2.32,2.98-4.05,3.86
		c-1.6,0.82-2.99,0.76-3.91-0.15c-0.92-0.91-1-2.31-0.18-3.91c0.85-1.65,2.18-2.85,3.66-3.91c0.32-0.23,0.65-0.45,0.94-0.65
		c-1.12,0-2.27,0.12-3.38-0.03c-1.23-0.17-2.48-0.48-3.62-0.96c-1.08-0.46-1.82-1.38-1.73-2.67c0.08-1.25,0.93-1.97,1.99-2.42
		c1.93-0.82,3.9-0.59,5.87-0.14c0.52,0.12,1.03,0.27,1.72,0.46c-0.61-0.65-1.13-1.15-1.61-1.7C7.33,8.05,6.43,6.69,6.21,4.99
		C6.06,3.88,6.26,2.88,7.18,2.16c0.94-0.73,1.99-0.63,2.98-0.17c1.89,0.87,2.96,2.52,3.86,4.3c0.25,0.5,0.46,1.02,0.74,1.63
		c0.2-1.05,0.29-2.01,0.58-2.91c0.31-0.96,0.69-1.93,1.24-2.78c0.99-1.54,2.42-2.1,3.68-1.63c1.28,0.47,2.03,1.91,1.93,3.66
		c-0.09,1.62-0.67,3.09-1.43,4.49c-0.15,0.27-0.3,0.54-0.57,1.02c0.77-0.39,1.32-0.69,1.88-0.96c1.5-0.72,3.06-1.19,4.75-0.93
		c1.19,0.19,2.14,0.7,2.58,1.9c0.43,1.2-0.07,2.18-0.87,3c-1.41,1.43-3.25,1.93-5.17,2.22c-0.39,0.06-0.78,0.11-1.28,0.18
		c0.96,0.48,1.9,0.8,2.66,1.37c1.06,0.8,2.08,1.7,2.93,2.71c0.44,0.52,0.62,1.39,0.65,2.11c0.05,1.58-1.41,2.65-3.12,2.45
		c-2.19-0.26-3.8-1.54-5.31-2.99C19.62,20.59,19.38,20.34,19.07,20.03z M13.41,15.71c-2.35,1-4.59,2.21-6.43,4.04
		c-0.92,0.92-1.69,1.95-1.94,3.28c-0.24,1.29,0.65,2.25,1.92,1.9c0.86-0.24,1.73-0.63,2.43-1.18c2.4-1.88,3.74-4.5,4.93-7.21
		C13.98,16.24,13.71,15.98,13.41,15.71z M16.4,16.56c-0.43,0.21-1.03,0.31-1.12,0.58c-0.79,2.44-1.29,4.94-1.05,7.52
		c0.11,1.15,0.36,2.29,1.16,3.2c0.89,1.03,2,0.96,2.72-0.19c0.7-1.12,0.83-2.38,0.72-3.65C18.61,21.42,17.7,19.03,16.4,16.56z
		 M13.09,13.41c-2.25-1.16-4.59-2.06-7.15-2.26c-1.3-0.1-2.59,0.03-3.71,0.78c-1.03,0.69-1.17,1.82-0.18,2.54
		c0.75,0.55,1.69,0.96,2.6,1.15c2.39,0.5,4.75,0.03,7.08-0.57C13,14.73,13,14.72,13.09,13.41z M17.42,16.17
		c1.19,1.82,2.52,3.54,4.23,4.93c1.08,0.87,2.23,1.61,3.66,1.74c1.59,0.15,2.51-1,1.83-2.45c-0.37-0.8-0.98-1.56-1.65-2.13
		c-1.86-1.6-4.16-2.29-6.48-2.92C18.25,15.14,17.65,15.16,17.42,16.17z M14.78,11.71c-0.46-2.25-1.15-4.52-2.51-6.54
		C11.59,4.15,10.79,3.24,9.6,2.8C8.1,2.25,6.95,3.13,7.16,4.7c0.07,0.55,0.22,1.12,0.46,1.62c1.08,2.29,2.94,3.87,4.9,5.37
		C13.27,12.26,13.96,12.78,14.78,11.71z M17.8,12.94c0.36,1.23,0.36,1.28,1.56,1.24c1.61-0.06,3.22-0.12,4.81-0.33
		c1.42-0.19,2.75-0.76,3.76-1.85c0.48-0.52,0.83-1.14,0.57-1.91c-0.27-0.78-0.93-1.14-1.67-1.21c-0.74-0.07-1.52-0.06-2.24,0.09
		C21.92,9.55,19.84,11.18,17.8,12.94z M17.09,12.11c1.76-1.84,3.24-4.05,3.75-6.09c0.25-1.01,0.34-2.14,0.15-3.15
		c-0.29-1.53-1.75-1.97-2.85-0.87c-0.71,0.71-1.27,1.66-1.65,2.61c-0.73,1.82-0.7,3.78-0.71,5.72
		C15.78,11.26,15.84,12.04,17.09,12.11z"/>
</g>
</svg>
