<?xml version="1.0" encoding="UTF-8"?>
<svg id="_Ñëîé_1" data-name="Ñëîé_1" xmlns="http://www.w3.org/2000/svg" viewBox="0 0 60 60">
  <defs>
    <style>
      .cls-1 {
        fill: #2d0402;
      }

      .cls-2 {
        fill: #ff9a00;
      }
    </style>
  </defs>
  <path class="cls-1" d="M46.02,55H13.98c-4.96,0-8.98-4.12-8.98-9.19V14.19c0-5.08,4.02-9.19,8.98-9.19h32.04c4.96,0,8.98,4.12,8.98,9.19v31.62c0,5.08-4.02,9.19-8.98,9.19Z"/>
  <g>
    <rect class="cls-2" x="39.14" y="25.02" width="4.57" height="17.12"/>
    <ellipse class="cls-2" cx="41.43" cy="20.55" rx="2.63" ry="2.69"/>
    <path class="cls-2" d="M29.24,19.59h-5.89c0,1.01-.17,2.02-.51,2.97l-6.89,19.58h4.83l1.73-5.39,7.74-.06,1.77,5.45h5.1l-7.87-22.55ZM23.77,32.33l2.52-8.75,2.64,8.75h-5.15Z"/>
  </g>
</svg>