<?xml version="1.0" encoding="utf-8"?>
<!-- Generator: Adobe Illustrator 24.1.0, SVG Export Plug-In . SVG Version: 6.00 Build 0)  -->
<svg version="1.1" id="Capa_1" xmlns="http://www.w3.org/2000/svg" xmlns:xlink="http://www.w3.org/1999/xlink" x="0px" y="0px"
	 viewBox="0 0 48 48" style="enable-background:new 0 0 48 48;" xml:space="preserve">
<style type="text/css">
	.st0{fill:#7A7A7A;}
</style>
<path class="st0" d="M29.2,43.1L11.7,25.6c-0.2-0.2-0.4-0.4-0.5-0.7S11,24.3,11,24c0-0.3,0.1-0.6,0.2-0.9s0.3-0.5,0.5-0.7L29.2,4.9
	c0.5-0.5,1.1-0.8,2-0.8s1.4,0.2,2,0.7c0.6,0.6,0.9,1.2,0.9,2s-0.3,1.4-0.9,2L18,24l15.1,15.1c0.5,0.5,0.8,1.2,0.8,2
	c0,0.8-0.2,1.4-0.8,1.9c-0.6,0.6-1.2,0.8-2,0.8C30.4,43.9,29.7,43.6,29.2,43.1z"/>
</svg>
