<?xml version="1.0" encoding="UTF-8"?>
<svg id="Capa_1" xmlns="http://www.w3.org/2000/svg" viewBox="0 0 40 40">
  <defs>
    <style>
      .cls-1 {
        fill: #e1d5ea;
      }

      .cls-2 {
        fill: #1f1f1f;
      }
    </style>
  </defs>
  <path class="cls-1" d="M35.03.39H5.18C2.6.39.5,2.49.5,5.07v29.85c0,2.59,2.1,4.68,4.68,4.68h29.85c2.59,0,4.68-2.1,4.68-4.68V5.07c0-2.59-2.1-4.68-4.68-4.68Z"/>
  <path class="cls-2" d="M3.73,9.45c.21-.01.4-.03.59-.03,3.01,0,6.03-.05,9.04.02,1.28.03,2.6.11,3.8.48,2.2.68,3.49,2.32,3.66,4.62.16,2.14-.79,3.79-2.65,4.9-.06.03-.1.08-.22.2.27.11.5.2.73.3,2.95,1.31,4.07,4.59,2.62,7.67-.99,2.1-2.65,3.32-4.96,3.41-4.18.15-8.37.17-12.61.24V9.45ZM8.1,27.48h.8c2.05-.04,4.1-.03,6.14-.12.95-.04,1.69-.58,2.07-1.48.82-1.94-.33-3.9-2.43-4.01-2.11-.12-4.23-.11-6.34-.15-.08,0-.16.04-.24.06v5.7h0ZM8.1,18c2.03,0,4,0,5.98,0,.28,0,.56-.09.83-.18,1.1-.37,1.75-1.34,1.65-2.45-.11-1.24-.74-1.99-1.97-2.15-.86-.12-1.73-.12-2.6-.13-1.28-.02-2.56,0-3.88,0v4.93Z"/>
  <path class="cls-2" d="M37.26,24.5h-10.28c-.3,1.58.74,3.29,2.23,3.75,1.72.54,2.86-.09,3.73-2.09,1.34.23,2.7.46,4.11.69-.74,2.09-2,3.58-4.04,4.25-2.16.71-4.35.63-6.45-.27-1.51-.65-2.58-1.79-3.19-3.31-1.22-3.05-1.25-6.13.37-9.02,1.52-2.73,4.04-3.74,7.09-3.4,3.01.34,5,2,5.92,4.88.46,1.44.61,2.93.51,4.51h0ZM33.02,21.9c.2-1.23-.38-2.54-1.4-3.18-.97-.61-2.36-.59-3.27.05-1,.71-1.56,2.03-1.31,3.12h5.98Z"/>
  <path class="cls-2" d="M34.23,10.92v2.77h-8.58v-2.77h8.58Z"/>
</svg>