<?xml version="1.0" encoding="utf-8"?>
<!-- Generator: Adobe Illustrator 24.1.0, SVG Export Plug-In . SVG Version: 6.00 Build 0)  -->
<svg version="1.1" id="Capa_1" xmlns="http://www.w3.org/2000/svg" xmlns:xlink="http://www.w3.org/1999/xlink" x="0px" y="0px"
	 viewBox="0 0 48 48" style="enable-background:new 0 0 48 48;" xml:space="preserve">
<style type="text/css">
	.st0{fill:#7A7A7A;}
</style>
<path class="st0" d="M24,27.2l-9.9,9.9c-0.5,0.5-1,0.7-1.6,0.7s-1.1-0.2-1.6-0.7c-0.5-0.4-0.7-1-0.7-1.6s0.2-1.1,0.7-1.6l9.9-9.9
	l-9.9-9.9c-0.4-0.4-0.6-1-0.6-1.6s0.2-1.2,0.6-1.6c0.4-0.4,0.9-0.6,1.6-0.6s1.2,0.2,1.6,0.6l9.9,9.9l10-10c0.4-0.4,1-0.6,1.6-0.6
	s1.2,0.2,1.6,0.6c0.4,0.5,0.7,1,0.7,1.6s-0.2,1.1-0.7,1.6l-10,9.9l9.9,9.9c0.5,0.5,0.7,1,0.7,1.6s-0.2,1.1-0.7,1.6
	c-0.4,0.5-1,0.7-1.6,0.7S34.4,37.5,34,37L24,27.2z"/>
</svg>
