<?xml version="1.0" encoding="UTF-8"?>
<svg id="Capa_1" xmlns="http://www.w3.org/2000/svg" viewBox="0 0 90 90">
  <defs>
    <style>
      .cls-1 {
        fill: #3a3271;
      }
    </style>
  </defs>
  <path class="cls-1" d="M48.82,46.62c7.18,5.53,14.38,11.04,21.55,16.58,1.62,1.25,3.33,2.43,4.77,3.87,3.05,3.05,3.06,8.31.21,11.17-3.27,3.28-8.1,3.27-11.25-.49-4.89-5.81-8.15-12.71-12-19.21-1.76-2.97-3.23-6.1-6.42-9.71-.83,5.87-1.47,10.85-2.24,15.82-.91,5.91-.83,11.97-2.67,17.72-1.47,4.59-5.83,7.02-9.89,5.7-4.05-1.31-6.36-5.96-4.58-10.49,3.28-8.39,8.47-15.81,12.81-23.67.97-1.77,2.3-3.38,2.44-6.42-6.81,2.83-13.12,5.46-19.45,8.08-3.35,1.38-6.67,2.9-10.11,4.04-3.06,1.01-6.25,1.46-8.76-1.42-2.1-2.41-3.18-5.08-1.8-8.27,1.46-3.38,3.99-5.18,7.71-5.24,9.29-.15,18.58-.29,27.88-.45,1.18-.02,2.82.62,3.31-.93.4-1.25-1.1-1.7-1.94-2.34-6.56-4.92-13.13-9.81-19.64-14.79-1.88-1.43-3.74-2.93-4.94-5.04-2.07-3.64-1.67-7.02,1.49-9.8,3.37-2.97,6.92-2.91,10.07.45,2.25,2.39,4.19,5.14,5.91,7.94,3.53,5.79,6.82,11.73,10.22,17.6.53.93.87,2.35,2.15,2.23,1.67-.16,1.5-1.83,1.66-3,1.04-7.97,2.01-15.95,2.98-23.93.55-4.52,1.27-8.96,6.48-10.52,2.91-.87,5.63-.48,7.68,2.12,3.49,4.44,1.67,8.77-.55,12.83-3.85,7.05-8.02,13.92-12.02,20.89-.59,1.04-1.71,2.25-.62,3.4.96,1,1.99-.2,2.99-.53,8.83-2.94,16.83-7.99,25.86-10.42,3.44-.93,6.92-1.4,9.5,1.99,2.15,2.84,2.19,5.87.47,8.88-1.56,2.73-4.23,3.78-7.18,3.86-9.45.24-18.91.36-28.35.52-1.07.02-2.16.03-3.24.04-.15.3-.31.61-.46.91h0Z"/>
</svg>