<svg width="239" height="500" viewBox="0 0 239 500" fill="none" xmlns="http://www.w3.org/2000/svg">
<path d="M58.9511 336.416C63.0712 357.366 67.7064 376.598 70.6248 396.002C74.5732 421.587 72.5132 446.83 60.6678 470.355C41.784 507.789 1.26947 510.193 -22.2495 475.163C-35.4682 455.415 -40.7901 432.921 -41.4767 409.567C-42.1634 389.82 -41.6484 369.901 -41.6484 349.81C-44.0518 353.244 -47.1419 357.881 -50.232 362.345C-69.1159 388.961 -90.0598 413.517 -119.759 428.628C-147.226 442.708 -171.089 441.678 -186.883 426.052C-202.676 410.426 -204.05 386.386 -189.973 358.911C-175.381 330.578 -152.548 309.972 -127.141 291.77C-121.647 287.821 -115.982 284.043 -111.004 280.609C-130.231 280.609 -149.973 282.669 -169.029 280.094C-190.144 277.174 -211.603 271.851 -231.174 263.609C-249.714 255.71 -262.418 239.912 -260.873 217.761C-259.5 196.296 -244.908 183.933 -226.71 176.205C-193.578 162.125 -159.758 166.074 -125.939 173.801C-117.012 175.862 -108.257 178.438 -96.4116 181.7C-106.884 170.539 -115.811 161.953 -124.051 152.509C-142.591 130.701 -158.042 107.347 -161.818 78.1556C-164.394 59.0951 -160.96 41.9235 -145.166 29.56C-129.029 17.0247 -111.004 18.7419 -94.0082 26.6408C-61.5623 41.5801 -43.1935 69.9132 -27.743 100.479C-23.4512 109.064 -19.8461 117.994 -15.0393 128.468C-11.6059 110.438 -10.0609 93.9535 -5.08238 78.499C0.239441 62.0143 6.76297 45.3579 16.2049 30.762C33.2004 4.31777 57.7494 -5.29832 79.38 2.77232C101.354 10.843 114.229 35.5701 112.513 65.6203C110.968 93.4383 101.011 118.681 87.9636 142.721C85.3885 147.357 82.8135 151.993 78.1783 160.236C91.3971 153.539 100.839 148.387 110.453 143.751C136.203 131.388 162.984 123.317 191.997 127.781C212.425 131.044 228.734 139.802 236.288 160.408C243.67 181.013 235.086 197.842 221.352 211.922C197.147 236.478 165.559 245.063 132.598 250.043C125.903 251.074 119.208 251.932 110.624 253.134C127.105 261.376 143.242 266.871 156.289 276.659C174.486 290.396 191.997 305.851 206.589 323.194C214.142 332.123 217.232 347.063 217.747 359.426C218.606 386.557 193.542 404.931 164.186 401.497C126.59 397.032 98.9506 375.052 73.0282 350.154C68.393 346.032 64.2729 341.74 58.9511 336.416ZM-38.215 262.235C-78.5578 279.407 -117.012 300.184 -148.6 331.608C-164.394 347.406 -177.612 365.093 -181.904 387.931C-186.024 410.082 -170.745 426.567 -148.943 420.557C-134.179 416.436 -119.244 409.739 -107.227 400.295C-66.0258 368.012 -43.0218 323.022 -22.5929 276.487C-28.4297 271.336 -33.0648 266.871 -38.215 262.235ZM13.1148 276.831C5.73291 280.437 -4.56738 282.154 -6.11241 286.79C-19.6745 328.689 -28.258 371.618 -24.1379 415.921C-22.2495 435.668 -17.9577 455.244 -4.22403 470.87C11.0547 488.557 30.1103 487.355 42.4707 467.607C54.4877 448.375 56.7194 426.739 54.831 404.931C51.0542 360.285 35.4321 319.245 13.1148 276.831ZM-43.7085 222.74C-82.3346 202.821 -122.506 187.367 -166.454 183.933C-188.771 182.215 -210.917 184.448 -230.144 197.326C-247.826 209.175 -250.229 228.579 -233.234 240.942C-220.358 250.387 -204.221 257.427 -188.599 260.69C-147.57 269.275 -107.055 261.205 -67.0558 250.902C-45.2535 245.407 -45.2535 245.235 -43.7085 222.74ZM30.6253 270.134C51.0542 301.386 73.8865 330.921 103.242 354.79C121.783 369.729 141.525 382.436 166.074 384.668C193.37 387.244 209.164 367.497 197.49 342.598C191.138 328.861 180.666 315.81 169.164 306.023C137.233 278.548 97.7489 266.7 57.9211 255.882C44.8741 252.447 34.5738 252.791 30.6253 270.134ZM-14.696 193.549C-22.5929 154.913 -34.4382 115.933 -57.7855 81.2465C-69.4592 63.7315 -83.1929 48.1053 -103.622 40.5498C-129.373 31.1054 -149.115 46.2164 -145.51 73.1758C-144.308 82.6202 -141.733 92.408 -137.613 100.994C-119.072 140.317 -87.1414 167.448 -53.4937 193.205C-40.6184 202.993 -28.7731 211.922 -14.696 193.549ZM37.1488 214.67C43.329 235.791 43.329 236.649 63.9296 235.963C91.5687 234.932 119.208 233.902 146.504 230.296C170.881 227.033 193.713 217.245 211.052 198.528C219.292 189.599 225.301 178.953 220.837 165.731C216.202 152.337 204.872 146.155 192.168 144.953C179.465 143.751 166.074 143.923 153.714 146.499C107.878 156.458 72.1698 184.448 37.1488 214.67ZM24.9601 200.417C55.1743 168.822 80.5817 130.872 89.337 95.8423C93.6288 78.499 95.1738 59.0951 91.912 41.7518C86.9336 15.4793 61.8695 7.9238 42.9857 26.8125C30.797 39.0044 21.1834 55.3174 14.6599 71.6304C2.12784 102.883 2.64282 136.539 2.47116 169.852C2.47116 185.821 3.50122 199.215 24.9601 200.417Z" fill="#E4D7FF"/>
</svg>
