<?xml version="1.0" encoding="UTF-8"?>
<svg id="Capa_1" xmlns="http://www.w3.org/2000/svg" viewBox="0 0 35 35">
  <defs>
    <style>
      .cls-1 {
        fill: #7348c3;
      }
    </style>
  </defs>
  <path class="cls-1" d="M18.07,16.06c.88-4.09,1.75-7.87,3.09-11.52.86-2.35,2.74-3.93,4.92-3.96,2.43-.03,4.96,1.65,5.75,3.84.73,2.03-.18,4.62-2.04,6.19-2.59,2.19-5.57,3.73-8.46,5.43-.44.26-1.19.39-1.08,1.07.11.66.84.54,1.35.67,2.96.78,5.95,1.46,8.86,2.38,3.53,1.12,4.92,3.48,4.28,6.83-.72,3.76-4.88,5.5-8.11,3.46-1.74-1.1-2.8-2.76-3.86-4.41-1.17-1.84-2.22-3.75-3.34-5.62-.27-.45-.38-1.2-1.01-1.14-.73.07-.52.86-.62,1.35-.67,3.36-1.47,6.69-2.62,9.93-.8,2.27-2.92,3.86-5.26,3.85-2.35,0-4.69-1.82-5.43-4.22-.66-2.12.26-4.44,2.2-5.93,2.57-1.97,5.37-3.55,8.1-5.26.45-.28,1.13-.53,1.08-1.13-.07-.82-.91-.67-1.47-.78-2.88-.56-5.71-1.3-8.48-2.23C2.24,13.61.71,10.85,1.75,7.42c1.01-3.31,4.86-4.79,7.79-2.97,2.71,1.69,4.04,4.52,5.69,7.08.9,1.4,1.42,3.04,2.82,4.54h.01Z"/>
</svg>