<?xml version="1.0" encoding="UTF-8"?>
<svg id="Capa_1" xmlns="http://www.w3.org/2000/svg" viewBox="0 0 1920 1140">
  <defs>
    <style>
      .cls-1 {
        fill: #dde6ff;
      }

      .cls-2 {
        fill: #fef4ea;
      }
    </style>
  </defs>
  <path class="cls-1" d="M1920,0H0v329.31c1.79,2.25,2.46,4.54,1.74,7.19.5,1.97,4.55,2.32,5.05,4.28,11.33,44.21,23.75,94.42,43.22,136.33,62.04,133.5,189.63,185.39,319.01,237.93,99.02,40.22,181.28,94.08,252.38,171.07,67.58,73.18,123.82,165.36,226.1,195.5,85.49,25.18,190.72,2.09,292.25-25.54,44.73-12.17,90.7-25.35,131.48-20.98,58.44,6.28,74.5,52.58,88.05,104.92h560.72V0Z"/>
  <path class="cls-2" d="M1271.23,1035.08c-40.78-4.37-86.75,8.81-131.48,20.98-101.53,27.64-206.75,50.72-292.25,25.54-102.28-30.14-158.51-122.32-226.1-195.5-71.1-76.99-153.35-130.85-252.38-171.07-129.37-52.54-256.96-104.43-319.01-237.93-19.47-41.91-31.89-92.12-43.22-136.33-.5-1.97-4.55-2.32-5.05-4.28.72-2.65.04-4.94-1.74-7.19v810.69h1359.28c-13.55-52.34-29.61-98.64-88.05-104.92Z"/>
</svg>