<?xml version="1.0" encoding="UTF-8"?>
<svg id="Capa_1" xmlns="http://www.w3.org/2000/svg" viewBox="0 0 1920 1005.98">
  <defs>
    <style>
      .cls-1 {
        fill: #e4d7ff;
      }

      .cls-2 {
        fill: #fff7ef;
      }
    </style>
  </defs>
  <rect class="cls-2" width="1920" height="1660"/>
  <path class="cls-1" d="M43.76,328.69c2.31,11.74,4.9,22.51,6.54,33.38,2.21,14.33,1.06,28.47-5.58,41.65-10.58,20.97-33.28,22.32-46.45,2.69-7.41-11.06-10.39-23.66-10.77-36.75-.38-11.06-.1-22.22-.1-33.48-1.35,1.92-3.08,4.52-4.81,7.02-10.58,14.91-22.31,28.67-38.95,37.13-15.39,7.89-28.76,7.31-37.6-1.44-8.85-8.75-9.62-22.22-1.73-37.61,8.17-15.87,20.97-27.42,35.2-37.61,3.08-2.21,6.25-4.33,9.04-6.25-10.77,0-21.83,1.15-32.51-.29-11.83-1.64-23.85-4.62-34.81-9.24-10.39-4.43-17.5-13.28-16.64-25.68.77-12.03,8.94-18.95,19.14-23.28,18.56-7.89,37.51-5.68,56.45-1.35,5,1.15,9.91,2.6,16.54,4.43-5.87-6.25-10.87-11.06-15.48-16.35-10.39-12.22-19.04-25.3-21.16-41.65-1.44-10.68.48-20.3,9.33-27.22,9.04-7.02,19.14-6.06,28.66-1.64,18.18,8.37,28.47,24.24,37.12,41.37,2.4,4.81,4.42,9.81,7.12,15.68,1.92-10.1,2.79-19.34,5.58-27.99,2.98-9.23,6.64-18.57,11.93-26.74,9.52-14.81,23.27-20.2,35.39-15.68,12.31,4.52,19.52,18.37,18.56,35.21-.87,15.58-6.44,29.73-13.75,43.19-1.44,2.6-2.89,5.19-5.48,9.81,7.41-3.75,12.69-6.64,18.08-9.24,14.43-6.93,29.43-11.45,45.68-8.95,11.44,1.83,20.58,6.73,24.81,18.28,4.14,11.54-.67,20.97-8.37,28.86-13.56,13.76-31.26,18.57-49.72,21.36-3.75.58-7.5,1.06-12.31,1.73,9.23,4.62,18.27,7.7,25.58,13.18,10.19,7.7,20,16.35,28.18,26.07,4.23,5,5.96,13.37,6.25,20.3.48,15.2-13.56,25.49-30.01,23.57-21.06-2.5-36.55-14.81-51.07-28.76-2.6-2.31-4.9-4.71-7.89-7.7ZM-10.68,287.13c-22.6,9.62-44.14,21.26-61.84,38.86-8.85,8.85-16.25,18.76-18.66,31.55-2.31,12.41,6.25,21.64,18.47,18.28,8.27-2.31,16.64-6.06,23.37-11.35,23.08-18.09,35.97-43.29,47.41-69.36-3.27-2.89-5.87-5.39-8.75-7.98ZM18.08,295.31c-4.14,2.02-9.91,2.98-10.77,5.58-7.6,23.47-12.41,47.52-10.1,72.34,1.06,11.06,3.46,22.03,11.16,30.78,8.56,9.91,19.23,9.24,26.16-1.83,6.73-10.77,7.98-22.89,6.92-35.11-2.12-25.01-10.87-48-23.37-71.76ZM-13.75,265c-21.64-11.16-44.14-19.82-68.76-21.74-12.5-.96-24.91.29-35.68,7.5-9.91,6.64-11.25,17.51-1.73,24.43,7.21,5.29,16.25,9.24,25.01,11.06,22.99,4.81,45.68.29,68.09-5.48,12.21-3.08,12.21-3.17,13.08-15.78ZM27.89,291.55c11.44,17.51,24.24,34.05,40.68,47.43,10.39,8.37,21.45,15.49,35.2,16.74,15.29,1.44,24.14-9.62,17.6-23.57-3.56-7.7-9.43-15.01-15.87-20.49-17.89-15.39-40.01-22.03-62.32-28.09-7.31-1.92-13.08-1.73-15.29,7.98ZM2.5,248.65c-4.42-21.64-11.06-43.48-24.14-62.91-6.54-9.81-14.23-18.57-25.68-22.8-14.43-5.29-25.49,3.17-23.47,18.28.67,5.29,2.12,10.77,4.42,15.58,10.39,22.03,28.28,37.23,47.12,51.66,7.21,5.48,13.85,10.49,21.74.19ZM31.54,260.48c3.46,11.83,3.46,12.31,15,11.93,15.48-.58,30.97-1.15,46.26-3.17,13.66-1.83,26.45-7.31,36.16-17.8,4.62-5,7.98-10.97,5.48-18.37-2.6-7.5-8.94-10.97-16.06-11.64-7.12-.67-14.62-.58-21.54.87-25.68,5.58-45.68,21.26-65.3,38.19ZM24.72,252.5c16.93-17.7,31.16-38.96,36.06-58.58,2.4-9.72,3.27-20.59,1.44-30.3-2.79-14.72-16.83-18.95-27.41-8.37-6.83,6.83-12.21,15.97-15.87,25.11-7.02,17.51-6.73,36.36-6.83,55.03,0,8.95.58,16.45,12.6,17.12Z"/>
  <path class="cls-1" d="M1884.52,533.97c-2.09-10.63-4.44-20.38-5.92-30.22-2-12.98-.96-25.78,5.05-37.71,9.58-18.99,30.13-20.21,42.06-2.44,6.7,10.02,9.4,21.43,9.75,33.27.35,10.02.09,20.12.09,30.31,1.22-1.74,2.79-4.09,4.35-6.36,9.58-13.5,20.2-25.95,35.26-33.62,13.93-7.14,26.03-6.62,34.05,1.31,8.01,7.93,8.71,20.12,1.57,34.05-7.4,14.37-18.98,24.82-31.87,34.05-2.79,2-5.66,3.92-8.18,5.66,9.75,0,19.77-1.04,29.43.26,10.71,1.48,21.59,4.18,31.52,8.36,9.4,4.01,15.85,12.02,15.06,23.25-.7,10.89-8.1,17.16-17.33,21.08-16.8,7.14-33.96,5.14-51.11,1.22-4.53-1.05-8.97-2.35-14.98-4.01,5.31,5.66,9.84,10.02,14.02,14.81,9.4,11.06,17.24,22.91,19.16,37.71,1.31,9.67-.44,18.38-8.45,24.65-8.18,6.36-17.33,5.49-25.95,1.48-16.46-7.58-25.77-21.95-33.61-37.45-2.18-4.35-4.01-8.88-6.44-14.2-1.74,9.14-2.53,17.51-5.05,25.34-2.7,8.36-6.01,16.81-10.8,24.21-8.62,13.41-21.07,18.29-32.04,14.2-11.15-4.09-17.68-16.64-16.81-31.88.78-14.11,5.83-26.91,12.45-39.11,1.31-2.35,2.61-4.7,4.96-8.88-6.7,3.4-11.49,6.01-16.37,8.36-13.06,6.27-26.64,10.36-41.36,8.1-10.36-1.66-18.63-6.1-22.46-16.55-3.74-10.45.61-18.99,7.58-26.13,12.28-12.45,28.3-16.81,45.02-19.34,3.4-.52,6.79-.96,11.15-1.57-8.36-4.18-16.54-6.97-23.16-11.93-9.23-6.97-18.11-14.81-25.51-23.6-3.83-4.53-5.4-12.11-5.66-18.38-.44-13.76,12.28-23.08,27.17-21.34,19.07,2.26,33.09,13.41,46.24,26.04,2.35,2.09,4.44,4.27,7.14,6.97ZM1933.8,571.59c20.46-8.71,39.97-19.25,55.99-35.19,8.01-8.01,14.72-16.98,16.89-28.57,2.09-11.24-5.66-19.6-16.72-16.55-7.49,2.09-15.06,5.49-21.16,10.28-20.9,16.37-32.57,39.19-42.93,62.8,2.96,2.61,5.31,4.88,7.92,7.23ZM1907.77,564.19c3.74-1.83,8.97-2.7,9.75-5.05,6.88-21.25,11.23-43.03,9.14-65.5-.96-10.02-3.13-19.94-10.1-27.87-7.75-8.97-17.41-8.36-23.68,1.66-6.1,9.75-7.23,20.73-6.27,31.79,1.92,22.64,9.84,43.46,21.16,64.97ZM1936.59,591.63c19.59,10.1,39.97,17.94,62.26,19.68,11.32.87,22.55-.26,32.3-6.79,8.97-6.01,10.19-15.85,1.57-22.12-6.53-4.79-14.72-8.36-22.64-10.02-20.81-4.35-41.36-.26-61.65,4.96-11.06,2.79-11.06,2.87-11.84,14.28ZM1898.89,567.59c-10.36-15.85-21.94-30.83-36.83-42.94-9.4-7.58-19.42-14.02-31.87-15.15-13.84-1.31-21.86,8.71-15.93,21.34,3.22,6.97,8.53,13.59,14.37,18.55,16.2,13.94,36.22,19.94,56.42,25.43,6.62,1.74,11.84,1.57,13.84-7.23ZM1921.87,606.43c4.01,19.6,10.01,39.37,21.86,56.96,5.92,8.88,12.89,16.81,23.25,20.64,13.06,4.79,23.07-2.87,21.25-16.55-.61-4.79-1.92-9.75-4.01-14.11-9.4-19.94-25.6-33.71-42.67-46.77-6.53-4.96-12.54-9.49-19.68-.17ZM1895.58,595.72c-3.13-10.71-3.13-11.15-13.58-10.8-14.02.52-28.04,1.05-41.88,2.87-12.36,1.66-23.94,6.62-32.74,16.11-4.18,4.53-7.23,9.93-4.96,16.63,2.35,6.79,8.1,9.93,14.54,10.54,6.44.61,13.24.52,19.5-.78,23.25-5.05,41.36-19.25,59.12-34.58ZM1901.76,602.95c-15.32,16.03-28.21,35.27-32.65,53.04-2.18,8.8-2.96,18.64-1.31,27.44,2.53,13.33,15.24,17.16,24.82,7.58,6.18-6.18,11.06-14.46,14.37-22.73,6.36-15.85,6.1-32.92,6.18-49.82,0-8.1-.52-14.89-11.41-15.5Z"/>
</svg>