<?xml version="1.0" encoding="UTF-8"?>
<svg id="Capa_1" xmlns="http://www.w3.org/2000/svg" viewBox="0 0 1920 1701.27">
  <defs>
    <style>
      .cls-1 {
        fill: #e4d7ff;
      }

      .cls-2 {
        fill: #fff7ef;
      }
    </style>
  </defs>
  <path class="cls-2" d="M1098.49,780.32c-3.05.53-6.09,1.06-9.14,1.6-152.58,27.12-302.06,71.73-456.48,88.25-71.91,7.7-144.9,6.4-216.61,5.88-76.53-.55-154.04-9.7-228.48-27.38-27.55-6.54-56.23-13.73-83.67-22.71-10.99-3.6-21.78-7.48-32.22-11.73-22.48-9.14-69.86-37.81-71.89-66.02v953.06h1920v-913.25c-137.13-8.31-272.29-27.53-409.88-33.69-137.59-6.16-275.92,2.45-411.63,25.99Z"/>
  <path class="cls-1" d="M0,0v748.21c2.03,28.21,49.41,56.88,71.89,66.02,10.44,4.25,21.23,8.13,32.22,11.73,27.44,8.98,56.12,16.17,83.67,22.71,74.44,17.68,151.95,26.83,228.48,27.38,71.71.52,144.7,1.82,216.61-5.88,154.42-16.52,303.9-61.13,456.48-88.25,3.05-.54,6.09-1.07,9.14-1.6,135.71-23.54,274.04-32.15,411.63-25.99,137.59,6.16,272.75,25.38,409.88,33.69V0H0Z"/>
</svg>