<?xml version="1.0" encoding="UTF-8"?>
<svg id="_Ñëîé_1" data-name="Ñëîé_1" xmlns="http://www.w3.org/2000/svg" viewBox="0 0 60 60">
  <defs>
    <style>
      .cls-1 {
        fill: #43091f;
      }

      .cls-2 {
        fill: #e94869;
      }
    </style>
  </defs>
  <path class="cls-1" d="M46.02,55H13.98c-4.96,0-8.98-4.12-8.98-9.19V14.19c0-5.08,4.02-9.19,8.98-9.19h32.04c4.96,0,8.98,4.12,8.98,9.19v31.62c0,5.08-4.02,9.19-8.98,9.19Z"/>
  <g>
    <rect class="cls-2" x="18.22" y="19.69" width="4.78" height="22.66"/>
    <path class="cls-2" d="M36.99,17.65v6.94h-2.92c-4.1,0-7.43,3.4-7.43,7.6v2.55c0,4.2,3.33,7.6,7.43,7.6h2.92s4.73-.37,4.78-1.83v-22.87h-4.78ZM36.99,38.32h-1.78c-2.24,0-4.05-1.86-4.05-4.15v-1.39c0-2.29,1.81-4.15,4.05-4.15h1.78v9.69Z"/>
  </g>
</svg>