<?xml version="1.0" encoding="UTF-8"?>
<svg id="Capa_1" xmlns="http://www.w3.org/2000/svg" viewBox="0 0 40 40">
  <defs>
    <style>
      .cls-1 {
        fill: #e1d5ea;
      }

      .cls-2 {
        fill: #1f1f1f;
      }
    </style>
  </defs>
  <path class="cls-1" d="M34.82.39H4.97C2.38.39.28,2.49.28,5.08v29.85c0,2.59,2.1,4.68,4.68,4.68h29.85c2.59,0,4.68-2.1,4.68-4.68V5.08c0-2.59-2.1-4.68-4.68-4.68Z"/>
  <path class="cls-2" d="M35.62,20.24c0,2.24.03,4.48,0,6.73-.08,5.12-3.72,9.02-8.82,9.2-4.48.16-8.97.17-13.45,0-5.43-.2-9.05-4.03-9.14-9.44-.07-4.33-.08-8.66,0-12.99.1-5.19,3.93-9.06,9.14-9.19,4.48-.11,8.97-.11,13.45,0,4.99.13,8.7,3.97,8.81,8.95.05,2.24,0,4.48,0,6.72h0,0ZM19.8,32.04c2.32,0,4.65.08,6.97-.02,2.94-.12,4.84-1.9,4.91-4.83.12-4.56.12-9.13,0-13.7-.07-2.8-2.14-4.93-4.86-5-4.56-.12-9.14-.13-13.7.02-2.79.09-4.94,2.38-5,5.17-.1,4.49-.11,8.98,0,13.47.07,2.81,2.11,4.75,4.93,4.87,2.24.1,4.49.02,6.73.02h0Z"/>
  <path class="cls-2" d="M19.91,27.87c-4.26,0-7.38-3.19-7.38-7.54s3.14-7.49,7.43-7.48c4.29.01,7.52,3.38,7.45,7.79-.06,4.09-3.33,7.24-7.5,7.24h0ZM20,23.64c1.96-.03,3.36-1.48,3.3-3.4-.05-1.88-1.56-3.35-3.45-3.36-1.73-.01-3.36,1.71-3.32,3.5.04,1.92,1.5,3.3,3.47,3.27Z"/>
  <path class="cls-2" d="M30.39,12.28c-.24,1.42-.99,2.31-2.45,2.29-1.57-.02-2.45-.91-2.41-2.47.04-1.46,1.01-2.28,2.39-2.3,1.56-.02,2.29,1.03,2.47,2.48h0Z"/>
</svg>