<?xml version="1.0" encoding="utf-8"?>
<!-- Generator: Adobe Illustrator 24.1.0, SVG Export Plug-In . SVG Version: 6.00 Build 0)  -->
<svg version="1.1" id="Capa_1" xmlns="http://www.w3.org/2000/svg" xmlns:xlink="http://www.w3.org/1999/xlink" x="0px" y="0px"
	 viewBox="0 0 48 48" style="enable-background:new 0 0 48 48;" xml:space="preserve">
<style type="text/css">
	.st0{fill:#7A7A7A;}
</style>
<path class="st0" d="M13.3,43c-0.5-0.6-0.8-1.2-0.8-2s0.3-1.4,0.8-2l15.1-15.1L13.3,8.8c-0.5-0.5-0.8-1.2-0.8-2c0-0.8,0.2-1.4,0.8-2
	c0.6-0.5,1.2-0.8,2-0.8c0.8,0,1.4,0.2,1.9,0.8l17.6,17.5c0.2,0.2,0.4,0.4,0.5,0.7c0.1,0.3,0.2,0.6,0.2,0.9c0,0.3-0.1,0.6-0.2,0.9
	c-0.1,0.3-0.3,0.5-0.5,0.7L17.2,43c-0.6,0.5-1.2,0.8-2,0.8C14.5,43.8,13.8,43.5,13.3,43z"/>
</svg>
