<?xml version="1.0" encoding="UTF-8"?>
<svg id="Capa_1" xmlns="http://www.w3.org/2000/svg" viewBox="0 0 1920 1837.6">
  <defs>
    <style>
      .cls-1 {
        fill: #e4d7ff;
      }

      .cls-2 {
        fill: #fff7ef;
      }
    </style>
  </defs>
  <rect class="cls-2" x="-3.27" width="1920" height="2708"/>
  <path class="cls-1" d="M-46.24,1700.56s.02.03.03.04c73.38,115.08,196.83,77,288.16,6.42,114.11-88.21,195.76-207.52,331.55-258.05,152.46-56.73,270.76-11.36,418.45,27.04,91.75,23.86,186.25,23.03,276.83-5.58,92.08-29.09,183.47-78.38,281.47-69.09,63.01,5.97,120.89,35.96,181.17,54.75,68.26,21.28,135.86,15.27,205.98,15.03V336.49c-3-7.66-10.23-9.83-15.36-17.5v-4.67c-56.75-31.86-110.69-58.36-173.04-24.86-42.64,22.91-75.98,62.49-108.97,100.5-74.85,86.28-156.94,171.48-259.34,207.37-122.51,42.93-251.32,9.16-375.56-2.89-130.7-12.68-253.31-.63-380.9,32.55-166.69,43.36-331.14,86.07-499.08,24.69-52.72-19.27-105.42-49.38-152.2-75.63-2.08-1.17-6.24,1.17-8.33,0-2.08-3.51-6.24-4.67-12.49-4.67-1.04,0-2.08-3.51-4.16-4.67-2.81-.79-6.09.01-8.57-.09v1097.28c0,10.2,5.9,23.4,14.36,36.68Z"/>
  <path class="cls-2" d="M1802.69,456.2c.8-10.24,1.68-19.72,3.77-29.05,1.34-6,5.52-10.44,11.02-11.21,6.11-.85,13.06,2.46,15.8,7.53,2.55,4.71,1.15,11.32-2.98,15.73-5.76,6.14-12.73,10.84-19.41,15.9-1.01.77-2.87,1.33-2.35,2.95.5,1.58,2.31,1.04,3.63,1.2,7.72.97,15.48,1.68,23.13,3,9.28,1.61,13.59,6.92,13.14,15.29-.51,9.38-10.37,14.95-19.21,10.98-4.75-2.14-8-5.84-11.24-9.54-3.59-4.1-6.89-8.43-10.35-12.63-.83-1-1.37-2.8-2.94-2.46-1.8.4-1,2.27-1.08,3.49-.52,8.41-1.39,16.76-3.15,25.02-1.24,5.79-6.03,10.32-11.91,11.04-5.92.72-12.44-2.96-15.14-8.56-2.39-4.97-.88-10.9,3.48-15.15,5.78-5.61,12.29-10.35,18.56-15.37,1.03-.82,2.67-1.64,2.32-3.09-.47-1.97-2.53-1.34-3.96-1.43-7.45-.46-14.83-1.37-22.14-2.75-9.71-1.85-14.51-8.11-13.08-16.79,1.39-8.38,10.58-13.2,18.58-9.7,7.43,3.25,11.75,9.73,16.79,15.44,2.76,3.12,4.64,6.95,8.69,10.16h.03Z"/>
  <path class="cls-2" d="M1778.28,361.73c.51-6.48,1.07-12.47,2.39-18.37.84-3.8,3.49-6.61,6.96-7.09,3.87-.54,8.27,1.56,10,4.76,1.61,2.98.73,7.16-1.89,9.95-3.64,3.88-8.05,6.86-12.27,10.05-.64.48-1.81.84-1.49,1.86.32,1,1.46.66,2.3.76,4.88.61,9.79,1.06,14.63,1.9,5.87,1.02,8.59,4.38,8.31,9.67-.32,5.93-6.56,9.45-12.15,6.94-3.01-1.35-5.06-3.69-7.11-6.03-2.27-2.59-4.36-5.33-6.55-7.99-.52-.63-.86-1.77-1.85-1.55-1.14.26-.64,1.43-.69,2.21-.33,5.32-.88,10.6-1.99,15.82-.78,3.67-3.81,6.53-7.53,6.98-3.74.46-7.87-1.87-9.57-5.41-1.52-3.14-.57-6.9,2.19-9.58,3.66-3.55,7.77-6.55,11.74-9.72.66-.52,1.69-1.04,1.47-1.96-.3-1.25-1.6-.85-2.51-.9-4.71-.29-9.37-.86-14-1.74-6.14-1.17-9.18-5.13-8.27-10.62.88-5.3,6.69-8.35,11.75-6.13,4.7,2.06,7.43,6.15,10.62,9.77,1.74,1.97,2.93,4.39,5.49,6.43h.02Z"/>
  <path class="cls-2" d="M120.82,1078.58c9.39,3.2,18.79,6.38,28.16,9.6,2.12.73,4.31,1.35,6.3,2.33,4.22,2.07,6.05,7.38,4.06,11.23-2.28,4.41-7.32,6.01-11.9,3.26-7.1-4.25-12.86-10.14-19.11-15.43-2.85-2.42-5.46-5.1-10.03-7.69,1.15,6.22,2.2,11.47,3.1,16.75,1.08,6.28,3.25,12.39,3.3,18.82.04,5.14-3.66,9.04-8.36,9.06-4.67.02-8.68-3.91-8.38-9.08.54-9.59,3.4-18.82,5.23-28.21.41-2.11,1.24-4.19.34-7.31-6.13,5.14-11.8,9.9-17.51,14.65-3.02,2.52-5.95,5.16-9.15,7.45-2.84,2.04-6.01,3.56-9.62,1.49-3.02-1.74-5.06-4.08-4.71-7.77.36-3.9,2.38-6.57,6.23-7.87,9.64-3.25,19.28-6.48,28.91-9.75,1.23-.42,3.15-.31,3.13-2.04,0-1.4-1.73-1.35-2.83-1.72-8.52-2.79-17.06-5.55-25.55-8.41-2.45-.82-4.9-1.72-6.88-3.45-3.41-2.99-4.15-6.54-1.81-10.42,2.5-4.13,6.21-5.25,10.65-2.9,3.16,1.67,6.13,3.8,8.89,6.07,5.67,4.68,11.14,9.6,16.69,14.4.88.76,1.72,2.08,3.01,1.54,1.69-.72.94-2.36.7-3.59-1.65-8.41-3.38-16.81-5.11-25.2-.98-4.75-1.75-9.49,3.14-12.8,2.74-1.85,5.7-2.36,8.73-.42,5.16,3.33,4.76,8.31,3.83,13.17-1.59,8.41-3.58,16.76-5.36,25.14-.26,1.25-1.01,2.85.52,3.65,1.34.7,2.01-.87,2.93-1.54,8.2-5.92,14.8-13.69,23.38-19.16,3.27-2.08,6.73-3.72,10.58-1.15,3.22,2.15,4.3,5.21,3.54,8.83-.69,3.29-3.11,5.24-6.16,6.3-9.77,3.4-19.59,6.66-29.38,9.98-1.11.37-2.24.75-3.36,1.12-.05.35-.12.72-.17,1.07h.01Z"/>
  <path class="cls-2" d="M185.63,1166.69c4.31,4.25,8.62,8.49,12.91,12.75.97.96,2.01,1.88,2.84,2.95,1.76,2.27,1.28,5.69-.89,7.3-2.5,1.84-5.73,1.4-7.5-1.33-2.74-4.23-4.29-9.02-6.27-13.6-.9-2.09-1.6-4.27-3.41-6.91-1.1,3.76-1.99,6.94-2.97,10.11-1.16,3.77-1.67,7.73-3.44,11.31-1.41,2.86-4.56,4.05-7.16,2.82-2.59-1.22-3.71-4.46-2.1-7.25,2.98-5.18,7.15-9.54,10.79-14.28.82-1.07,1.86-2,2.24-3.97-4.83,1.23-9.31,2.38-13.79,3.51-2.38.6-4.74,1.29-7.15,1.72-2.15.38-4.33.39-5.74-1.71-1.18-1.76-1.66-3.59-.44-5.55,1.29-2.07,3.16-3.02,5.65-2.72,6.25.74,12.49,1.49,18.74,2.21.8.09,1.83.66,2.31-.31.38-.78-.58-1.21-1.09-1.7-3.94-3.8-7.9-7.58-11.8-11.4-1.12-1.1-2.23-2.25-2.85-3.73-1.05-2.56-.47-4.72,1.91-6.26,2.54-1.63,4.91-1.27,6.71,1.2,1.29,1.76,2.33,3.73,3.23,5.71,1.83,4.09,3.48,8.26,5.22,12.39.27.65.37,1.61,1.24,1.64,1.13.05,1.18-1.06,1.39-1.81,1.44-5.1,2.83-10.22,4.22-15.33.79-2.89,1.69-5.72,5.32-6.27,2.03-.3,3.82.2,4.95,2.07,1.93,3.21.31,5.86-1.56,8.31-3.24,4.25-6.67,8.35-10,12.54-.5.63-1.36,1.32-.73,2.16.55.74,1.36.05,2.05-.08,6.2-1.12,12.03-3.69,18.31-4.47,2.39-.29,4.77-.29,6.18,2.15,1.18,2.04.92,4.02-.51,5.83-1.3,1.64-3.19,2.09-5.18,1.87-6.36-.69-12.71-1.47-19.07-2.21-.72-.09-1.45-.17-2.18-.26-.13.18-.26.37-.39.55h0Z"/>
</svg>