<?xml version="1.0" encoding="UTF-8"?>
<svg id="Capa_1" xmlns="http://www.w3.org/2000/svg" viewBox="0 0 1920 2708">
  <defs>
    <style>
      .cls-1 {
        fill: #e4d7ff;
      }

      .cls-2 {
        fill: #fff7ef;
      }
    </style>
  </defs>
  <rect class="cls-2" x="-3.27" width="1920" height="2708"/>
  <path class="cls-1" d="M13.8,2013.38s.02.04.03.05c70.52,115.69,189.15,77.41,276.91,6.45,109.66-88.67,188.12-208.63,318.61-259.42,146.51-57.04,260.19-11.43,402.1,27.18,88.17,23.99,178.98,23.15,266.03-5.61,88.48-29.24,176.31-78.8,270.48-69.46,60.55,6,116.17,36.16,174.1,55.04,65.6,21.39,130.56,15.36,197.94,15.11V642.05c-2.88-7.71-87.98-79.83-181.05-47.29-43.73,21.14-73.01,62.82-104.71,101.03-71.93,86.74-150.82,172.39-249.22,208.47-117.73,43.16-241.51,9.21-360.9-2.9-125.59-12.74-243.41-.63-366.02,32.73-160.18,43.59-318.21,86.52-479.6,24.82-50.66-19.37-101.3-49.64-146.26-76.03-2-1.18-6,1.17-8,0-2-3.52-6-4.7-12-4.7-1,0-2-3.52-4-4.7-2.7-.8-5.85.01-8.24-.09v1103.13c0,10.26,5.67,23.53,13.8,36.87Z"/>
  <path class="cls-2" d="M1823.79,768.1c.77-10.13,1.62-19.5,3.62-28.73,1.29-5.94,5.31-10.33,10.59-11.08,5.88-.84,12.56,2.44,15.19,7.45,2.45,4.66,1.1,11.19-2.87,15.56-5.53,6.07-12.23,10.72-18.65,15.72-.97.76-2.75,1.31-2.26,2.91.49,1.56,2.22,1.03,3.49,1.18,7.42.96,14.88,1.66,22.23,2.97,8.92,1.59,13.06,6.84,12.63,15.12-.49,9.28-9.97,14.78-18.46,10.86-4.57-2.11-7.69-5.77-10.81-9.43-3.45-4.06-6.61-8.33-9.94-12.49-.79-.99-1.32-2.77-2.82-2.43-1.74.4-.96,2.24-1.04,3.45-.5,8.31-1.34,16.57-3.03,24.74-1.19,5.73-5.79,10.2-11.44,10.92-5.69.72-11.96-2.93-14.55-8.46-2.3-4.91-.85-10.78,3.34-14.98,5.55-5.55,11.81-10.24,17.84-15.2.99-.82,2.56-1.62,2.23-3.06-.45-1.95-2.44-1.33-3.81-1.41-7.15-.46-14.24-1.35-21.27-2.72-9.33-1.83-13.94-8.02-12.57-16.6,1.34-8.29,10.17-13.06,17.86-9.59,7.13,3.22,11.28,9.62,16.13,15.27,2.64,3.08,4.45,6.87,8.34,10.05h.03Z"/>
  <path class="cls-2" d="M1790.34,679.7c.49-6.4,1.03-12.33,2.29-18.17.82-3.75,3.36-6.53,6.7-7.01,3.72-.53,7.94,1.54,9.6,4.71,1.55,2.95.7,7.08-1.81,9.84-3.5,3.84-7.74,6.78-11.79,9.94-.62.48-1.74.83-1.43,1.84.3.99,1.4.65,2.2.75,4.69.6,9.41,1.05,14.06,1.88,5.64,1.01,8.26,4.33,7.99,9.56-.31,5.87-6.31,9.35-11.68,6.87-2.88-1.34-4.86-3.65-6.83-5.97-2.18-2.56-4.19-5.27-6.29-7.9-.5-.63-.83-1.75-1.78-1.53-1.1.25-.61,1.42-.66,2.18-.32,5.26-.85,10.48-1.92,15.64-.75,3.62-3.66,6.45-7.23,6.9-3.6.45-7.56-1.85-9.2-5.35-1.45-3.1-.54-6.82,2.11-9.47,3.51-3.51,7.47-6.47,11.28-9.61.63-.51,1.62-1.03,1.41-1.93-.28-1.24-1.54-.84-2.41-.89-4.52-.29-9-.85-13.45-1.72-5.9-1.15-8.82-5.07-7.95-10.5.85-5.24,6.43-8.26,11.3-6.07,4.51,2.03,7.13,6.09,10.2,9.66,1.67,1.95,2.81,4.34,5.27,6.36h.02Z"/>
  <path class="cls-2" d="M161.52,1804.26c9.02,3.16,18.05,6.31,27.06,9.49,2.04.72,4.14,1.33,6.05,2.3,4.06,2.05,5.81,7.3,3.9,11.11-2.19,4.36-7.03,5.94-11.43,3.22-6.82-4.2-12.36-10.03-18.36-15.26-2.74-2.39-5.25-5.04-9.64-7.6,1.11,6.15,2.11,11.34,2.98,16.56,1.04,6.21,3.12,12.25,3.17,18.61.04,5.08-3.52,8.94-8.03,8.96-4.49.02-8.34-3.87-8.05-8.98.52-9.48,3.27-18.61,5.02-27.9.39-2.09,1.19-4.14.33-7.23-5.89,5.08-11.34,9.79-16.82,14.49-2.9,2.49-5.72,5.1-8.79,7.37-2.73,2.02-5.78,3.52-9.24,1.47-2.9-1.72-4.86-4.03-4.53-7.68.35-3.86,2.29-6.5,5.99-7.78,9.26-3.21,18.52-6.41,27.78-9.64,1.18-.41,3.03-.31,3.01-2.02-.01-1.38-1.66-1.34-2.72-1.7-8.19-2.76-16.39-5.49-24.55-8.32-2.35-.81-4.71-1.7-6.61-3.41-3.28-2.96-3.99-6.47-1.74-10.3,2.4-4.08,5.97-5.19,10.23-2.87,3.04,1.65,5.89,3.76,8.54,6,5.45,4.63,10.7,9.49,16.04,14.24.84.75,1.65,2.06,2.89,1.52,1.62-.71.9-2.33.67-3.55-1.59-8.32-3.25-16.62-4.91-24.92-.94-4.7-1.68-9.38,3.02-12.66,2.63-1.83,5.48-2.33,8.39-.41,4.96,3.29,4.57,8.22,3.68,13.02-1.53,8.32-3.44,16.57-5.15,24.86-.25,1.24-.97,2.82.5,3.61,1.29.69,1.93-.86,2.82-1.52,7.88-5.85,14.22-13.54,22.46-18.95,3.14-2.06,6.47-3.68,10.17-1.14,3.09,2.13,4.13,5.15,3.4,8.73-.66,3.25-2.99,5.18-5.92,6.23-9.39,3.36-18.82,6.59-28.23,9.87-1.07.37-2.15.74-3.23,1.11-.05.35-.11.71-.16,1.06h0Z"/>
  <path class="cls-2" d="M93.65,1729.47c4.14,4.2,8.28,8.39,12.41,12.6.93.96,1.93,1.86,2.73,2.92,1.69,2.24,1.23,5.63-.86,7.22-2.4,1.83-5.51,1.39-7.21-1.31-2.64-4.18-4.12-8.92-6.02-13.45-.87-2.07-1.54-4.22-3.27-6.83-1.06,3.71-1.91,6.86-2.85,9.99-1.11,3.73-1.6,7.65-3.3,11.19-1.36,2.83-4.38,4-6.88,2.79-2.49-1.21-3.57-4.41-2.02-7.17,2.86-5.11,6.87-9.43,10.36-14.11.78-1.06,1.78-1.98,2.15-3.92-4.64,1.22-8.94,2.35-13.25,3.47-2.28.6-4.55,1.28-6.87,1.71-2.06.38-4.16.38-5.52-1.7-1.14-1.74-1.6-3.55-.42-5.49,1.24-2.04,3.04-2.98,5.43-2.69,6,.73,12,1.47,18.01,2.19.76.1,1.76.65,2.22-.3.37-.77-.56-1.2-1.04-1.68-3.79-3.76-7.59-7.5-11.34-11.28-1.08-1.09-2.15-2.22-2.73-3.69-1.01-2.53-.45-4.67,1.84-6.18,2.44-1.61,4.72-1.26,6.45,1.18,1.24,1.74,2.24,3.69,3.1,5.65,1.76,4.05,3.35,8.17,5.01,12.25.26.64.35,1.59,1.19,1.63,1.09.04,1.13-1.05,1.34-1.79,1.38-5.05,2.72-10.1,4.05-15.16.76-2.86,1.62-5.66,5.11-6.2,1.95-.3,3.67.19,4.76,2.05,1.85,3.17.3,5.8-1.5,8.22-3.11,4.2-6.41,8.26-9.61,12.39-.48.62-1.3,1.3-.7,2.14.53.73,1.3.05,1.97-.08,5.95-1.1,11.56-3.65,17.59-4.42,2.3-.29,4.58-.28,5.94,2.13,1.13,2.02.89,3.98-.49,5.77-1.25,1.62-3.06,2.06-4.97,1.85-6.11-.69-12.21-1.45-18.32-2.19-.69-.08-1.39-.17-2.09-.26-.12.18-.25.37-.38.55h0Z"/>
</svg>