<?xml version="1.0" encoding="UTF-8"?>
<svg id="_Ñëîé_1" data-name="Ñëîé_1" xmlns="http://www.w3.org/2000/svg" viewBox="0 0 60 60">
  <defs>
    <style>
      .cls-1 {
        fill: #30a8ff;
      }

      .cls-2 {
        fill: #001e36;
      }
    </style>
  </defs>
  <path class="cls-2" d="M46.02,55H13.98c-4.96,0-8.98-4.12-8.98-9.19V14.19c0-5.08,4.02-9.19,8.98-9.19h32.04c4.96,0,8.98,4.12,8.98,9.19v31.62c0,5.08-4.02,9.19-8.98,9.19Z"/>
  <path class="cls-1" d="M24.61,17.81h-8.15v22.23h4.57v-6.94h3.58c2.06,0,3.93-.86,5.28-2.24,1.35-1.38,2.19-3.29,2.19-5.4,0-4.22-3.34-7.64-7.47-7.64ZM26.52,28c-.64.65-1.52,1.06-2.49,1.06h-3v-7.21h3c1.95,0,3.52,1.61,3.52,3.61,0,1-.39,1.9-1.03,2.55Z"/>
  <path class="cls-1" d="M46.35,35.05c0,1.48-.67,2.88-1.73,3.87-1.2,1.11-2.86,1.58-4.43,1.7-.19.01-.38.02-.57.03-1.75.04-3.6-.35-5.19-1.1-.02,0-.03-.02-.05-.02,0-1.31,0-2.62,0-3.93,0,.07,1.27.39,1.43.44,1.45.49,3.17.85,4.7.65.32-.04.65-.12.9-.34.94-.8-.01-1.79-.78-2.17-.83-.41-1.73-.67-2.57-1.05-.8-.35-1.57-.81-2.21-1.42-2.12-2.02-2.04-5.42.12-7.38,1.22-1.11,2.88-1.46,4.47-1.54,1.65-.07,3.32.23,4.84.87.06.02.12.05.15.11.03.05.03.11.03.16,0,1.34,0,2.67,0,4.01-.25-.22-.59-.31-.88-.44-.32-.14-.65-.27-.98-.38-1.18-.39-2.71-.74-3.91-.32-.44.16-.77.48-.77.98,0,.78.75,1.15,1.35,1.44.76.35,1.56.57,2.31.92,1.95.93,3.77,2.52,3.77,4.91Z"/>
</svg>